The.Avengers.2012.CAMRip.XviD.READNFO-INFERNO




Plot


The Avengers (2012)

An all-star lineup of superheroes -- including Iron Man, the Incredible Hulk and Captain America -- team up to save the world from certain doom. Working under the authority of S.H.I.E.L.D., can our heroes keep the planet at peace?

Cast:
Robert Downey Jr.,Chris Evans,Mark Ruffalo,Chris Hemsworth,Scarlett Johansson,Jeremy Renner,Tom Hiddleston,Clark Gregg,Cobie Smulders,Stellan Skarsgård,Samuel L. Jackson,Gwyneth Paltrow,Paul Bettany
Director:
Joss Whedon
Genre:
Action,Action Thrillers,Comic Book Movies 
http://www.imdb.com/title/tt0848228/



Infomation

General
Complete name : The Avengers (2012) CAM XviD-INFERNO
Format : AVI
Format/Info : Audio Video Interleave
File size : 602 MiB
Duration : 2h 11mn
Overall bit rate : 640 Kbps
Writing application : VirtualDubMod 1.5.10.2 (build 2540/release)
Writing library : VirtualDub build 32842/release

Video
ID : 0
Format : MPEG-4 Visual
Format profile : Advanced Simple@L5
Format settings, BVOP : 2
Format settings, QPel : No
Format settings, GMC : No warppoints
Format settings, Matrix : Default (H.263)
Muxing mode : Packed bitstream
Codec ID : XVID
Codec ID/Hint : XviD
Duration : 2h 11mn
Bit rate : 500 Kbps
Width : 540 pixels
Height : 204 pixels
Display aspect ratio : 2.647
Frame rate : 30.000 fps
Color space : YUV
Chroma subsampling : 4:2:0
Bit depth : 8 bits
Scan type : Progressive
Compression mode : Lossy
Bits/(Pixel*Frame) : 0.151
Stream size : 470 MiB (78%)
Writing library : XviD 64

Audio
ID : 1
Format : MPEG Audio
Format version : Version 1
Format profile : Layer 3
Mode : Joint stereo
Mode extension : MS Stereo
Codec ID : 55
Codec ID/Hint : MP3
Duration : 2h 11mn
Bit rate mode : Constant
Bit rate : 128 Kbps
Channel(s) : 2 channels
Sampling rate : 48.0 KHz
Compression mode : Lossy
Stream size : 120 MiB (20%)
Alignment : Split accross interleaves
Interleave, duration : 33 ms (1.00 video frame)
Interleave, preload duration : 500 ms